<mxfile host="app.diagrams.net" agent="Mozilla/5.0 (Windows NT 10.0; Win64; x64) AppleWebKit/537.36 (KHTML, like Gecko) Chrome/136.0.0.0 Safari/537.36" version="27.0.5">
  <diagram name="Page-1" id="Wk2SZ3Dgn6wj2FgpQmdu">
    <mxGraphModel dx="1901" dy="1100" grid="1" gridSize="10" guides="1" tooltips="1" connect="1" arrows="1" fold="1" page="1" pageScale="1" pageWidth="1920" pageHeight="1080" math="0" shadow="0">
      <root>
        <mxCell id="0" />
        <mxCell id="1" parent="0" />
        <mxCell id="2mj4cjvI3WKVShRjhSFl-1" value="" style="rounded=0;whiteSpace=wrap;html=1;fillColor=light-dark(#FFFFFF,#FFFFFF);" parent="1" vertex="1">
          <mxGeometry width="1920" height="1080" as="geometry" />
        </mxCell>
        <mxCell id="2mj4cjvI3WKVShRjhSFl-2" value="" style="rounded=0;whiteSpace=wrap;html=1;fillColor=light-dark(#FFFFFF,#007FFF);" parent="1" vertex="1">
          <mxGeometry width="1920" height="100" as="geometry" />
        </mxCell>
        <mxCell id="2mj4cjvI3WKVShRjhSFl-3" value="" style="rounded=0;whiteSpace=wrap;html=1;fillColor=light-dark(#FFFFFF,#1A1A1A);" parent="1" vertex="1">
          <mxGeometry y="100" width="1920" height="80" as="geometry" />
        </mxCell>
        <mxCell id="2mj4cjvI3WKVShRjhSFl-5" value="Company Profile" style="text;html=1;align=center;verticalAlign=middle;whiteSpace=wrap;rounded=0;fontSize=30;" parent="1" vertex="1">
          <mxGeometry x="840" y="20" width="240" height="60" as="geometry" />
        </mxCell>
        <mxCell id="2mj4cjvI3WKVShRjhSFl-6" value="Hot Beans Web" style="text;html=1;align=center;verticalAlign=middle;whiteSpace=wrap;rounded=0;fontSize=30;" parent="1" vertex="1">
          <mxGeometry x="300" y="100" width="220" height="80" as="geometry" />
        </mxCell>
        <mxCell id="2mj4cjvI3WKVShRjhSFl-7" value="&lt;font style=&quot;font-size: 20px;&quot;&gt;Company Profile&amp;nbsp; Our Team&amp;nbsp; Job Openings&amp;nbsp; Apply Now&amp;nbsp; Courses&amp;nbsp; Privacy Policy&lt;/font&gt;" style="text;whiteSpace=wrap;html=1;fontSize=25;verticalAlign=middle;" parent="1" vertex="1">
          <mxGeometry x="1020" y="100" width="900" height="80" as="geometry" />
        </mxCell>
        <UserObject label="Hot Beans Web was established in 2007 by David Wood, who previously held roles in a multi-national business. He saw that there was a potential for a slightly different type of Web Design Agency; David wanted to create a web design agency that could deliver on the fundamentals of providing good quality websites at affordable prices without compromising on quality. Over a decade and a half later, it has proven to be a successful formula; we have seen the business grow year on year for both Hot Beans and our clients. We have our head office in Peterborough and offices in Northampton.&lt;div&gt;&lt;font style=&quot;font-size: 30px;&quot;&gt;&lt;b&gt;Our Trusting Clients&lt;/b&gt;&lt;/font&gt;&lt;/div&gt;&lt;div&gt;Our clients base include many different types and sizes of business, ranging from the sole trader to SME&#39;s all the way through to household names. Hot Beans has had direct and indirect development contracts with some of the world&#39;s biggest names, including the likes of Belkin, DSG Group, Ingram Micro, Halfords, Nationwide, and Tesco. However, our favourite customers are the ones that embrace a website to help start and develop their businesses. These include local plumbers, builders, electricians, home builders and gardeners. We are always here to help and believe in Givers Gain; if you need any help or advice, we are here to help, and we don’t charge for any consultation ever!&lt;/div&gt;&lt;div&gt;&lt;font style=&quot;font-size: 30px;&quot;&gt;&lt;b&gt;Our People&lt;/b&gt;&lt;/font&gt;&lt;/div&gt;&lt;div&gt;We are so proud of the people who make Hot Beans who we are. They are a unique set of web designers, web developers, and marketers who come together to deliver on the one shared philosophy: to provide the best solutions for website design to our existing and new customers. The team at Hotbeans is unusually diverse for the web design industry. As a team, we can focus more on our client&#39;s objectives and deliver custom web design and development to exceed our customer&#39;s expectations every time.We are constantly looking for dedicated new talent, wheather formally qualified or self taught. If you think that is you then please fill out our application form and we can start the conversation.If you like the idea but feel you lack the skills look at our courses page to improve your confidence and technical ability.&lt;/div&gt;&lt;div&gt;&lt;br&gt;&lt;/div&gt;&lt;div&gt;&lt;b&gt;Company Address:&lt;/b&gt;&lt;/div&gt;&lt;div&gt;75 Broadway&lt;/div&gt;&lt;div&gt;Peterborough&lt;/div&gt;&lt;div&gt;PE1 1SY&lt;/div&gt;&lt;div&gt;contactus@hotbeansweb.co.uk&lt;/div&gt;" id="qmOIuZe4hRwivx6xctNg-1">
          <mxCell style="text;whiteSpace=wrap;html=1;fontColor=light-dark(#000000,#000000);fontSize=20;" parent="1" vertex="1">
            <mxGeometry x="210" y="210" width="1500" height="680" as="geometry" />
          </mxCell>
        </UserObject>
        <mxCell id="6vwyDtYXKGUiSL_Yxjqe-2" value="" style="rounded=0;whiteSpace=wrap;html=1;fillColor=light-dark(#FFFFFF,#1A1A1A);" vertex="1" parent="1">
          <mxGeometry y="1000" width="1920" height="80" as="geometry" />
        </mxCell>
        <mxCell id="6vwyDtYXKGUiSL_Yxjqe-1" value="© 2025 Hot Beans Web. All rights reserved." style="text;whiteSpace=wrap;html=1;align=center;verticalAlign=middle;fontSize=20;" vertex="1" parent="1">
          <mxGeometry x="760" y="1000" width="400" height="80" as="geometry" />
        </mxCell>
      </root>
    </mxGraphModel>
  </diagram>
</mxfile>
